<?xml version="1.0" standalone="no"?><!DOCTYPE svg PUBLIC "-//W3C//DTD SVG 1.1//EN" "http://www.w3.org/Graphics/SVG/1.1/DTD/svg11.dtd"><svg t="1739722145903" class="icon" viewBox="0 0 1024 1024" version="1.1" xmlns="http://www.w3.org/2000/svg" p-id="10869" xmlns:xlink="http://www.w3.org/1999/xlink" width="200" height="200"><path d="M512 905.1c-53.1 0-104.5-10.4-153-30.9-46.8-19.8-88.8-48.1-124.9-84.2-36.1-36.1-64.4-78.1-84.2-124.9-20.5-48.5-30.9-99.9-30.9-153 0-53.1 10.4-104.5 30.9-153 19.8-46.8 48.1-88.8 84.2-124.9 36.1-36.1 78.1-64.4 124.9-84.2 48.5-20.5 99.9-30.9 153-30.9s104.5 10.4 153 30.9c46.8 19.8 88.8 48.1 124.9 84.2 36.1 36.1 64.4 78.1 84.2 124.9 20.5 48.5 30.9 99.9 30.9 153 0 53.1-10.4 104.5-30.9 153-19.8 46.8-48.1 88.8-84.2 124.9-36.1 36.1-78.1 64.4-124.9 84.2-48.5 20.5-99.9 30.9-153 30.9z m0-766.2c-205.7 0-373.1 167.4-373.1 373.1S306.3 885.1 512 885.1c205.7 0 373.1-167.4 373.1-373.1S717.7 138.9 512 138.9z" fill="#000042" p-id="10870"></path><path d="M512 971.8c-62.1 0-122.3-12.2-179-36.1-54.8-23.2-103.9-56.3-146.2-98.5-42.2-42.2-75.4-91.4-98.5-146.2-24-56.7-36.1-116.9-36.1-179s12.2-122.3 36.1-179c23.2-54.8 56.3-103.9 98.5-146.2 42.2-42.2 91.4-75.4 146.2-98.5 56.7-24 116.9-36.1 179-36.1s122.3 12.2 179 36.1c54.8 23.2 103.9 56.3 146.2 98.5s75.4 91.4 98.5 146.2c24 56.7 36.1 116.9 36.1 179 0 62.1-12.2 122.3-36.1 179-23.2 54.8-56.3 103.9-98.5 146.2s-91.4 75.4-146.2 98.5c-56.7 24-116.9 36.1-179 36.1z m0-899.6C269.5 72.2 72.2 269.5 72.2 512S269.5 951.8 512 951.8 951.8 754.5 951.8 512 754.5 72.2 512 72.2z" fill="#000042" p-id="10871"></path><path d="M832.4 510.6m-12 0a12 12 0 1 0 24 0 12 12 0 1 0-24 0Z" p-id="10872"></path><path d="M789.2 350.9m-12 0a12 12 0 1 0 24 0 12 12 0 1 0-24 0Z" p-id="10873"></path><path d="M467.3 551.8c-3.3 0-6.6-1.6-8.5-4.7-3-4.7-1.6-10.8 3.1-13.8l248.5-157.4c4.7-3 10.8-1.6 13.8 3.1s1.6 10.8-3.1 13.8L472.7 550.2c-1.7 1.1-3.6 1.6-5.4 1.6z" p-id="10874"></path><path d="M540.7 541.2c-2 0-4-0.6-5.8-1.8L337.5 399.9c-4.5-3.2-5.6-9.4-2.4-13.9 3.2-4.5 9.4-5.6 13.9-2.4L546.5 523c4.5 3.2 5.6 9.4 2.4 13.9-2 2.8-5.1 4.3-8.2 4.3z" p-id="10875"></path><path d="M536.6 839.7c-5.2 0-9.6-4.1-10-9.4l-23.2-355.7c-0.4-5.5 3.8-10.3 9.3-10.6 5.5-0.4 10.3 3.8 10.6 9.3L546.5 829c0.4 5.5-3.8 10.3-9.3 10.6-0.1 0.1-0.4 0.1-0.6 0.1z" p-id="10876"></path><path d="M512 511.9m-17.2 0a17.2 17.2 0 1 0 34.4 0 17.2 17.2 0 1 0-34.4 0Z" p-id="10877"></path><path d="M672 234.2m-12 0a12 12 0 1 0 24 0 12 12 0 1 0-24 0Z" p-id="10878"></path><path d="M512.1 191.7m-12 0a12 12 0 1 0 24 0 12 12 0 1 0-24 0Z" p-id="10879"></path><path d="M352.4 234.9m-12 0a12 12 0 1 0 24 0 12 12 0 1 0-24 0Z" p-id="10880"></path><path d="M235.7 352.1m-12 0a12 12 0 1 0 24 0 12 12 0 1 0-24 0Z" p-id="10881"></path><path d="M193.2 512m-12 0a12 12 0 1 0 24 0 12 12 0 1 0-24 0Z" p-id="10882"></path><path d="M236.4 671.7m-12 0a12 12 0 1 0 24 0 12 12 0 1 0-24 0Z" p-id="10883"></path><path d="M353.6 788.4m-12 0a12 12 0 1 0 24 0 12 12 0 1 0-24 0Z" p-id="10884"></path><path d="M513.5 830.8m-12 0a12 12 0 1 0 24 0 12 12 0 1 0-24 0Z" p-id="10885"></path><path d="M673.2 787.7m-12 0a12 12 0 1 0 24 0 12 12 0 1 0-24 0Z" p-id="10886"></path><path d="M789.9 670.4m-12 0a12 12 0 1 0 24 0 12 12 0 1 0-24 0Z" p-id="10887"></path></svg>