<?xml version="1.0" standalone="no"?><!DOCTYPE svg PUBLIC "-//W3C//DTD SVG 1.1//EN" "http://www.w3.org/Graphics/SVG/1.1/DTD/svg11.dtd"><svg t="1718855025117" class="icon" viewBox="0 0 1024 1024" version="1.1" xmlns="http://www.w3.org/2000/svg" p-id="14663" xmlns:xlink="http://www.w3.org/1999/xlink" width="200" height="200"><path d="M894.8224 884.8384H128.8704c-9.0112 0-16.1792 6.912-16.1792 15.104v9.472c0 8.2944 7.1168 15.104 16.1792 15.104h765.952c9.0112 0 16.1792-6.912 16.1792-15.104v-9.472c-0.1024-8.192-7.2704-15.104-16.1792-15.104z m3.8912 24.6784c0 2.048-1.8944 3.7888-3.9936 3.8912l-765.952-0.1024c-2.048 0-3.9936-1.6896-3.9936-3.7888v-9.472c0-2.0992 1.8944-3.84 3.9936-3.84h765.952c2.0992 0 3.9936 1.7408 3.9936 3.84v9.472z m-0.8704-469.76c-10.24 0-21.4016 2.5088-33.3824 7.7824-10.7008 4.3008-20.5824 8.6016-29.952 12.8-13.0048-38.144-40.3968-65.024-78.1312-65.024-15.616 0-32.4608 4.608-49.9712 14.3872-57.2416 29.184-97.1776 56.2176-131.9424 77.4144a96.8704 96.8704 0 0 0-7.424-1.536 403.8144 403.8144 0 0 0-27.2896-83.8656c10.0352-7.424 18.1248-10.7008 22.2208-10.496 3.2768 0.1024 4.864 0.8192 7.4752 5.2736 2.4064 4.4032 3.8912 12.5952 3.8912 24.3712 0 6.1952-0.4096 13.4144-1.28 21.8112l-1.6896 16.1792 12.0832-11.5712c29.184-28.4672 45.1584-50.5856 45.4144-69.632 0.2048-15.3088-12.6464-26.2144-32.256-30.208l-0.6656-0.1024h-0.7168c-11.52 0-23.7056 2.56-35.9936 6.912 8.9088-11.264 14.592-23.8592 14.8992-36.2496a46.08 46.08 0 0 0-0.2048-3.8912c0-11.9296-5.888-22.2208-17.4592-22.2208a23.6544 23.6544 0 0 0-9.0112 1.8432 9.728 9.728 0 0 1-3.2768 0.6656c-1.792 0-3.6864-0.768-5.7856-3.584a27.392 27.392 0 0 0 6.0928-16.9984 27.9552 27.9552 0 0 0-14.8992-24.4736 28.1088 28.1088 0 0 0 14.848-24.3712 27.9552 27.9552 0 0 0-14.848-24.4736 32.5632 32.5632 0 0 0 10.496-9.728c5.2736 8.3456 14.848 13.9264 25.9584 13.9264 16.896 0 30.3616-12.8 30.3616-28.4672 0-15.7696-13.568-28.5696-30.3616-28.5696a30.72 30.72 0 0 0-25.9584 13.8752 27.8528 27.8528 0 0 0-9.216-9.216 28.0576 28.0576 0 0 0 14.4896-24.1664c0-15.6672-13.568-28.4672-30.3616-28.4672-16.896 0-30.3616 12.8-30.3616 28.4672 0 10.0352 5.4784 18.688 13.6704 23.808a29.0304 29.0304 0 0 0-10.0864 9.5744 30.6176 30.6176 0 0 0-25.856-13.8752c-16.896 0-30.3616 12.8-30.3616 28.5696 0 15.6672 13.568 28.4672 30.3616 28.4672a30.8736 30.8736 0 0 0 25.9584-13.8752 29.696 29.696 0 0 0 10.496 9.728 28.16 28.16 0 0 0-14.848 24.4224c0 10.2912 6.0416 19.4048 14.9504 24.3712a28.16 28.16 0 0 0-14.848 24.4736c0 5.7344 1.8432 11.1104 4.9664 15.616-2.6112 3.8912-5.0176 5.1712-7.0144 5.12a8.0896 8.0896 0 0 1-3.2768-0.7168 25.6512 25.6512 0 0 0-8.9088-1.8432c-11.4688-0.1024-17.4592 10.496-17.4592 22.5792a34.0992 34.0992 0 0 0-0.2048 3.7376c0.1024 12.3904 5.888 24.9344 14.848 36.2496A111.5136 111.5136 0 0 0 430.08 347.648l-0.8192-0.1024-0.5632 0.1024c-19.6096 3.9936-32.5632 14.8992-32.256 30.208 0.3584 18.8416 16.384 40.96 45.4144 69.632l12.1856 11.8784-1.792-16.2816a232.704 232.704 0 0 1-1.28-21.6064c0-11.5712 1.536-19.8656 3.8912-24.4736 2.5088-4.5056 4.1984-5.1712 7.4752-5.4784 4.1984-0.1024 12.1856 3.1744 22.1696 10.5984a403.8144 403.8144 0 0 0-27.2384 83.9168l-7.424 1.4848c-34.56-21.1968-74.752-48.2304-132.096-77.5168-17.408-9.6256-34.304-14.336-49.8176-14.336-37.7344 0.1536-65.2288 27.0336-78.1312 65.0752a699.904 699.904 0 0 0-30.0544-12.8 83.5584 83.5584 0 0 0-33.3824-7.7824c-41.472 0.4096-61.6448 39.8848-61.7472 88.576 0 9.4208 0.7168 19.3024 2.304 29.4912 8.9088 62.8736 41.472 104.96 71.7312 137.8816 12.4928 13.568 27.5968 24.064 41.984 33.5872h-36.9664v150.2208h736.8704v-150.4256h-36.5568c14.336-9.6256 29.4912-20.0704 41.984-33.792 30.1568-32.9728 62.8224-75.1104 71.68-137.9328 1.536-10.0864 2.304-20.1216 2.304-29.4912-0.512-48.64-20.6848-88.2176-62.1056-88.5248z m-333.0048-281.3952a17.92 17.92 0 0 1 18.2784 17.408c0 9.5744-8.2944 17.152-18.2784 17.152-10.0864 0-18.2784-7.5776-18.2784-17.2032a17.92 17.92 0 0 1 18.2784-17.408z m-103.7824 34.6624c-9.984 0-18.2784-7.6288-18.2784-17.2032 0-9.5744 8.192-17.408 18.2784-17.408 9.984 0 18.2784 7.6288 18.2784 17.408 0 9.4208-8.2944 17.2032-18.2784 17.2032z m279.04 335.2576v4.9152c0 7.2704-0.7168 14.9504-2.0992 22.8352a235.3152 235.3152 0 0 1-5.8368 24.576 291.9936 291.9936 0 0 0-26.4704-26.8288c-3.1744-2.9184-6.144-5.9392-9.472-8.6016 5.632-7.5264 13.312-13.9776 22.1696-19.3024 6.7072-3.7888 13.8752-7.0656 22.016-9.216l-0.1024 5.8368c0 1.9968 0 3.7888-0.2048 5.7856z m-124.2112-36.352c26.4704-13.8752 51.6608-28.2624 68.7616-35.2768h0.1024c2.048-1.024 3.9936-1.536 5.888-2.0992 0.768-0.2048 1.8944-0.7168 2.6624-0.8192 1.4336-0.512 2.56-0.512 3.84-0.6656 1.024-0.1024 2.048-0.512 2.9696-0.512 20.6848 0.6144 29.696 6.8096 34.6624 18.944 1.2288 3.072 2.304 6.2464 3.072 9.9328a143.36 143.36 0 0 0-21.76 1.6896 140.288 140.288 0 0 0-70.2976 29.2864 318.208 318.208 0 0 0-18.688-8.8064l-1.8944-0.7168a219.4432 219.4432 0 0 0-17.6128-6.656c2.816-1.536 5.632-2.9184 8.2944-4.3008z m-45.3632 33.8432c59.904 13.1072 107.4176 49.152 148.0704 97.2288-28.8768-10.5984-57.2416-18.176-84.736-18.176-22.6304 0-44.6464 5.1712-65.5872 18.176 19.968-30.8736 20.6336-63.3344 2.2528-97.2288z m175.872 192.512h-175.616l-3.584-78.8992 179.2 78.8992zM495.616 127.5904c0-9.6256 8.192-17.2032 18.2784-17.2032 9.984 0 18.2784 7.5776 18.2784 17.2032 0 9.5744-8.192 17.152-18.2784 17.152a17.7152 17.7152 0 0 1-18.2784-17.152z m-1.024 48.0256c0-9.472 8.2944-17.152 18.3296-17.152 9.984 0 18.176 7.68 18.176 17.152 0 9.728-8.192 17.408-18.176 17.408a17.92 17.92 0 0 1-18.3296-17.408z m0 48.9472c0-9.6768 8.2944-17.408 18.3296-17.408 9.984 0 18.176 7.68 18.176 17.408 0 9.6256-8.192 17.2032-18.176 17.2032-9.9328 0-18.3296-7.5776-18.3296-17.2032z m30.4128 223.488c0 0.8192-0.4096 1.6896-0.512 2.5088a11.264 11.264 0 0 1-11.1104 8.6016c-6.2976 0-11.5712-4.9152-11.5712-10.9056 0-6.144 5.1712-10.9056 11.5712-11.0592a11.4176 11.4176 0 0 1 11.1104 8.5504c0.1024 0.6144 0.512 1.536 0.512 2.304zM489.472 504.7296c0-10.752 8.0896-19.712 18.8928-21.9136l2.8672-0.2048c0.7168-0.1024 1.3312-0.1024 1.8944-0.1024a24.4736 24.4736 0 0 1 19.712 9.9328c0.2048 0.3584 0.4096 0.5632 0.512 1.024a23.552 23.552 0 0 1 3.584 11.3664v0.0512a22.528 22.528 0 0 1-17.92 21.504 23.6544 23.6544 0 0 1-24.8832-8.4992l-0.512-0.6144c-0.4608-0.5632-0.6656-1.28-1.024-1.8944-0.4096-0.5632-0.8192-1.1776-1.1264-1.8944l-0.2048-0.768a18.6368 18.6368 0 0 1-1.792-7.9872z m35.4816 56.6272c0 6.144-5.2224 10.9056-11.6224 10.9056-6.2976 0-11.5712-4.9152-11.5712-10.9056 0-1.536 0.4096-3.0208 1.024-4.3008a12.0832 12.0832 0 0 1 5.888-5.6832l0.3584-0.2048a12.288 12.288 0 0 1 12.6976 2.4064l0.4096 0.4096a8.4992 8.4992 0 0 1 2.0992 3.072c0.3072 1.28 0.7168 2.7136 0.7168 4.3008z m-11.7248 34.4576c13.2096 0 23.808 9.984 23.808 22.1696a21.504 21.504 0 0 1-4.608 13.1072 24.064 24.064 0 0 1-26.6752 7.9872 23.808 23.808 0 0 1-14.2848-12.3904 20.8896 20.8896 0 0 1-1.8944-8.704c-0.1024-12.288 10.496-22.1696 23.6544-22.1696z m11.7248 78.848a9.7792 9.7792 0 0 1-1.7408 5.2736 11.776 11.776 0 0 1-9.984 5.6832c-1.3824 0-2.56-0.4096-3.8912-0.6656a11.008 11.008 0 0 1-7.68-10.24c0-6.144 5.1712-10.8544 11.5712-10.8544a11.1616 11.1616 0 0 1 11.7248 10.752z m-63.8464-148.8896c-18.432 33.8944-17.7152 66.2528 2.304 97.2288a120.7296 120.7296 0 0 0-65.6384-18.176c-27.4944 0-55.9616 7.5776-84.736 18.176 40.8576-47.9744 88.2176-84.0192 148.0704-97.2288z m-133.1712-81.92h-2.56 2.56z m-42.1888 37.1712a42.7008 42.7008 0 0 1 7.0144-16.9984 23.552 23.552 0 0 1 3.072-3.1744l0.7168-0.8192c1.1264-0.768 2.304-1.4848 3.4304-2.304a23.6544 23.6544 0 0 1 5.2736-2.304c0.7168-0.1536 1.1776-0.5632 1.8944-0.6656 1.536-0.512 3.2768-0.7168 5.12-1.1264 0.768-0.0512 1.3824-0.3584 2.2528-0.512l6.2976-0.4608c0.8192-0.1024 1.536-0.1024 2.56-0.1024 15.0528 0.512 52.992 23.3984 92.3648 43.6736a274.5344 274.5344 0 0 0-38.9632 16.4864 137.9328 137.9328 0 0 0-71.0144-29.7984v0.1024a147.2512 147.2512 0 0 0-20.1728-1.6896c0.1536 0 0.1536-0.1024 0.1536-0.3072z m40.8576 64.8192a286.72 286.72 0 0 0-28.0576 26.9824c-2.4064 2.6112-4.864 5.12-7.0656 7.68-1.536-5.0688-2.7136-10.1376-3.8912-15.2576a151.296 151.296 0 0 1-3.9936-32.1536v-0.8192l0.0512-3.3792-0.1536-11.52c18.6368 4.9152 33.536 15.5136 43.1104 28.4672z m133.0176 93.5424l-3.584 78.8992h-175.616l179.2-78.8992z m-214.3232 91.904h531.4048v7.2704H245.3504v-7.2704z m-93.3888-171.008a526.7968 526.7968 0 0 1-3.4304-18.9952c-0.9728-5.7344-1.4848-10.9056-1.9968-15.8208a113.152 113.152 0 0 1-0.3584-7.7824c0.6656-17.4592 4.3008-25.856 20.3776-30.0544a21.1968 21.1968 0 0 1 3.7888-0.8192h0.512c1.0752 0 2.56 0.1024 4.1984 0.512 2.048 0.4096 4.608 1.024 7.4752 1.792a173.7728 173.7728 0 0 0-2.0992 23.1936c-0.1024 2.304-0.1024 4.5056-0.1024 6.8096v1.9968a132.096 132.096 0 0 0-28.0576 40.2432c-0.2048-0.512-0.3072-0.7168-0.3072-1.1264z m6.144 25.4464c5.0176-16.9984 13.4144-30.464 23.808-41.1648 6.656 52.736 32.9728 93.184 58.5728 126.976 0.1536 0.4096 0.512 0.6144 0.6656 0.8192-3.7888 12.5952-6.7584 25.6-8.704 38.8608l-2.8672-3.6864-0.6144-0.8192-10.1888-12.6976v0.4096l-1.0752-1.28c-0.6144-0.7168-1.1264-1.536-1.6896-2.304l-2.56-3.4304-2.3552-3.2768-2.4064-3.2768a46.7968 46.7968 0 0 1-2.7136-3.9936l-2.3552-3.584-2.048-3.1232-3.1744-4.9152a238.1824 238.1824 0 0 1-5.2736-8.3968c-13.5168-21.76-27.1872-47.4624-34.9696-71.1168z m102.912 243.2v5.632-5.632h-45.2096a24.2688 24.2688 0 0 1-24.9856-23.7056c0-13.1072 11.264-23.7056 24.9856-23.7056h45.2608c13.6704 0 24.9344 10.496 24.9344 23.7056 0 13.1584-11.1616 23.552-24.9344 23.6544z m194.2528-3.072a26.5216 26.5216 0 0 1-11.8784 3.072h-45.2608a28.928 28.928 0 0 1-7.8336-1.3312 25.088 25.088 0 0 1-15.1552-13.1072 22.1696 22.1696 0 0 1-2.048-9.2672c0-13.1072 11.3152-23.7056 25.0368-23.7056h45.312a27.8528 27.8528 0 0 1 17.7664 6.912 23.04 23.04 0 0 1 7.424 16.7936 24.2176 24.2176 0 0 1-13.3632 20.6848z m183.5008-0.6656a26.368 26.368 0 0 1-13.1584 3.6864h-45.3632a29.1328 29.1328 0 0 1-8.9088-1.4848 23.7056 23.7056 0 0 1-16.1792-22.016 24.9856 24.9856 0 0 1 25.088-23.6544h45.3632a27.648 27.648 0 0 1 17.5616 6.912 23.04 23.04 0 0 1 7.3728 16.7936 23.04 23.04 0 0 1-11.776 19.7632z m186.7264-3.1744a25.4464 25.4464 0 0 1-17.5616 6.8608h-45.3632a22.6816 22.6816 0 0 1-6.5024-1.024 24.1664 24.1664 0 0 1-18.2784-22.6304c0-13.1072 11.264-23.7056 24.9856-23.7056h45.312a27.0848 27.0848 0 0 1 17.6128 6.912 23.04 23.04 0 0 1 7.3728 16.7936 24.1664 24.1664 0 0 1-7.5776 16.7936z m-2.304-153.9584a480.768 480.768 0 0 1-26.2656 36.352c-0.8192 0.8192-1.28 1.536-1.6896 1.8944-0.2048 0.1024-0.4096 0.4096-0.6144 0.6144l-0.1024-0.1024s-0.2048 0.1024-0.6144 0.6144c-1.024 1.1776-1.8944 2.4576-2.8672 3.6864l-1.2288-6.8096a248.832 248.832 0 0 0-7.3728-32.0512l0.7168-0.8192c15.5648-20.5824 31.4368-43.6736 42.9568-70.5024 0.2048-0.512 0.512-0.8192 0.5632-1.3312l0.6144-1.6896c6.656-15.9744 11.5712-33.28 14.336-52.224 2.048 2.2528 3.9424 4.608 5.8368 7.0656 0.512 0.6144 1.024 1.1264 1.3312 1.6896a99.328 99.328 0 0 1 15.9744 33.3824c-9.5232 27.648-26.4704 57.4464-41.5744 80.2304z m50.3296-117.9136a412.2624 412.2624 0 0 1-1.8944 9.728v0.3584l-0.1024 1.1264c-0.1024 0.7168-0.1536 1.28-0.1536 1.9968a122.6752 122.6752 0 0 0-26.5216-39.68l-1.3824-1.4848v-10.0864a210.7392 210.7392 0 0 0-1.9968-23.1936c5.0176-1.3824 9.216-2.304 11.5712-2.304h0.6144c1.6896 0.4096 3.0208 0.7168 4.4032 1.1264 0.7168 0.1024 1.3824 0.4096 2.0992 0.512 1.6896 0.512 3.0208 1.0752 4.3008 1.792a11.4176 11.4176 0 0 1 4.3008 2.7136c0.2048 0.0512 0.512 0.3584 0.6656 0.512a11.1616 11.1616 0 0 1 2.7136 2.9696c0.1024 0.1024 0.4096 0.2048 0.4096 0.4096 3.584 4.9664 4.608 11.776 5.12 21.248-0.1024 8.9088-1.8432 19.968-4.096 32.256z" fill="#ffffff" p-id="14664"></path></svg>